<svg xmlns="http://www.w3.org/2000/svg" width="20" height="20" fill="none" viewBox="0 0 20 20"><g clip-path="url(#a)"><mask id="b" width="20" height="20" x="0" y="0" maskUnits="userSpaceOnUse" style="mask-type:luminance"><path fill="#fff" d="M20 10c0 5.519-4.481 9.994-10 9.994S0 15.52 0 10C0 4.475 4.481 0 10 0s10 4.475 10 10"/></mask><g mask="url(#b)"><path fill="url(#c)" d="M10 19.96c-2.143 0-4.286-.116-6.417-.34a3.604 3.604 0 0 1-3.198-3.203 60 60 0 0 1 0-12.829A3.6 3.6 0 0 1 3.583.385a61 61 0 0 1 12.835 0 3.6 3.6 0 0 1 3.197 3.203 60 60 0 0 1 0 12.83 3.604 3.604 0 0 1-3.197 3.203 62 62 0 0 1-6.418.34"/><path fill="#fff" d="M10 .084c2.143 0 4.28.117 6.412.34a3.56 3.56 0 0 1 3.164 3.164 60.8 60.8 0 0 1 0 12.824 3.56 3.56 0 0 1-3.164 3.164 60 60 0 0 1-12.824.005 3.56 3.56 0 0 1-3.164-3.164 60.8 60.8 0 0 1 0-12.823A3.56 3.56 0 0 1 3.588.43 60 60 0 0 1 10 .084m0-.078Q6.784.004 3.577.346a3.64 3.64 0 0 0-3.23 3.237 60.2 60.2 0 0 0 0 12.84 3.64 3.64 0 0 0 3.23 3.237Q6.784 20 10 20a60 60 0 0 0 6.423-.34 3.64 3.64 0 0 0 3.231-3.237 60.2 60.2 0 0 0 0-12.84 3.64 3.64 0 0 0-3.23-3.237A60 60 0 0 0 10 .006"/></g><path fill="url(#d)" d="M3.716 7.578c.04-.296.073-.591.129-.882.295-1.651 1.467-2.779 3.141-2.834a84 84 0 0 1 6.055 0c1.82.061 3.142 1.411 3.198 3.236a92 92 0 0 1 0 5.81c-.056 1.824-1.379 3.169-3.198 3.236-2.014.073-4.04.073-6.055 0-1.819-.067-3.08-1.423-3.203-3.248-.005-.156-.044-.312-.067-.469zM10 15.067c.92 0 1.847.022 2.768-.011 1.445-.05 2.332-.915 2.366-2.355.039-1.797.039-3.6 0-5.396-.034-1.446-.927-2.327-2.366-2.355-1.836-.04-3.667-.04-5.503 0-1.428.028-2.321.893-2.36 2.321q-.075 2.728 0 5.463c.039 1.429.932 2.272 2.36 2.322.916.033 1.825.011 2.735.011"/><path fill="#fff" d="M3.716 7.578c.04-.296.073-.591.129-.882.295-1.651 1.467-2.779 3.141-2.834a84 84 0 0 1 6.055 0c1.82.061 3.142 1.411 3.198 3.236a92 92 0 0 1 0 5.81c-.056 1.824-1.379 3.169-3.198 3.236-2.014.073-4.04.073-6.055 0-1.819-.067-3.08-1.423-3.203-3.248-.005-.156-.044-.312-.067-.469zM10 15.067c.92 0 1.847.022 2.768-.011 1.445-.05 2.332-.915 2.366-2.355.039-1.797.039-3.6 0-5.396-.034-1.446-.927-2.327-2.366-2.355-1.836-.04-3.667-.04-5.503 0-1.428.028-2.321.893-2.36 2.321q-.075 2.728 0 5.463c.039 1.429.932 2.272 2.36 2.322.916.033 1.825.011 2.735.011"/><path fill="#fff" d="M10 6.802A3.2 3.2 0 0 0 6.797 10a3.203 3.203 0 0 0 6.406 0A3.2 3.2 0 0 0 10 6.802m0 5.302a2.1 2.1 0 0 1 0-4.202 2.1 2.1 0 0 1 0 4.202m4.152-5.452a.762.762 0 1 1-1.524.005.762.762 0 0 1 1.524-.005"/></g><defs><radialGradient id="c" cx="0" cy="0" r="1" gradientTransform="translate(4.126 17.45)scale(21.9632)" gradientUnits="userSpaceOnUse"><stop stop-color="#fae100"/><stop offset=".05" stop-color="#fadc04"/><stop offset=".12" stop-color="#fbce0e"/><stop offset=".18" stop-color="#fcb720"/><stop offset=".25" stop-color="#fe9838"/><stop offset=".31" stop-color="#ff7950"/><stop offset=".49" stop-color="#ff1c74"/><stop offset="1" stop-color="#6c1cd1"/></radialGradient><linearGradient id="d" x1="13.97" x2="5.881" y1="6.06" y2="14.149" gradientUnits="userSpaceOnUse"><stop stop-color="#833ab4"/><stop offset=".09" stop-color="#9c3495"/><stop offset=".29" stop-color="#dc2546"/><stop offset=".39" stop-color="#fd1d1d"/><stop offset=".56" stop-color="#fc6831"/><stop offset=".69" stop-color="#fc9b40"/><stop offset=".75" stop-color="#fcaf45"/><stop offset=".78" stop-color="#fdb750"/><stop offset=".87" stop-color="#fecb6a"/><stop offset=".94" stop-color="#ffd87a"/><stop offset="1" stop-color="#ffdc80"/></linearGradient><clipPath id="a"><path fill="#fff" d="M0 0h20v20H0z"/></clipPath></defs></svg>
