<svg xmlns="http://www.w3.org/2000/svg" width="20" height="20" fill="none">
  <path fill="#000" d="M10 20c5.523 0 10-4.477 10-10S15.523 0 10 0 0 4.477 0 10s4.477 10 10 10Z" />
  <path fill="#25F4EE"
    d="M8.609 8.315v-.546a4.21 4.21 0 0 0-.572-.042 4.237 4.237 0 0 0-2.43 7.71 4.222 4.222 0 0 1-1.138-2.886 4.244 4.244 0 0 1 4.14-4.237Z" />
  <path fill="#25F4EE"
    d="M8.709 14.488c1.043 0 1.893-.83 1.932-1.863l.004-9.231h1.686a3.207 3.207 0 0 1-.054-.585H9.973l-.003 9.232a1.937 1.937 0 0 1-1.933 1.863c-.324 0-.63-.081-.898-.222.353.487.924.807 1.57.807ZM15.482 6.527v-.513a3.187 3.187 0 0 1-1.746-.52 3.207 3.207 0 0 0 1.746 1.033Z" />
  <path fill="#FE2C55"
    d="M13.736 5.494a3.19 3.19 0 0 1-.788-2.1h-.617a3.21 3.21 0 0 0 1.405 2.1ZM8.037 10.031a1.939 1.939 0 0 0-1.936 1.936c0 .744.422 1.39 1.038 1.714a1.922 1.922 0 0 1-.367-1.13c0-1.067.87-1.936 1.937-1.936.199 0 .39.034.571.09V8.353a4.207 4.207 0 0 0-.571-.041l-.1.002v1.806a1.904 1.904 0 0 0-.572-.089Z" />
  <path fill="#FE2C55"
    d="M15.482 6.527v1.79a5.48 5.48 0 0 1-3.205-1.03v4.68a4.244 4.244 0 0 1-4.24 4.24 4.212 4.212 0 0 1-2.43-.768 4.229 4.229 0 0 0 3.102 1.353 4.244 4.244 0 0 0 4.24-4.24v-4.68a5.477 5.477 0 0 0 3.204 1.03V6.598c-.23 0-.455-.025-.67-.071h-.001Z" />
  <path fill="#fff"
    d="M12.277 11.967v-4.68a5.476 5.476 0 0 0 3.205 1.03v-1.79a3.207 3.207 0 0 1-1.746-1.033 3.21 3.21 0 0 1-1.405-2.1h-1.686l-.004 9.23a1.933 1.933 0 0 1-3.502 1.056 1.937 1.937 0 0 1 .898-3.65c.2 0 .39.034.572.09V8.314a4.244 4.244 0 0 0-4.14 4.237c0 1.115.433 2.129 1.139 2.886a4.214 4.214 0 0 0 2.43.769 4.244 4.244 0 0 0 4.239-4.24v.001Z" />
</svg>
