<svg xmlns="http://www.w3.org/2000/svg" width="20" height="20" fill="none" viewBox="0 0 20 20"><g clip-path="url(#a)"><path fill="#27d045" d="M10 20c5.523 0 10-4.477 10-10S15.523 0 10 0 0 4.477 0 10s4.477 10 10 10"/><path fill="#fff" fill-rule="evenodd" d="M10 4.592a5.408 5.408 0 1 0 0 10.816 5.408 5.408 0 0 0 0-10.816M3.57 10a6.429 6.429 0 1 1 12.857 0 6.429 6.429 0 0 1-12.857 0" clip-rule="evenodd"/><path fill="#fff" d="m4.592 13.368-.939 3.326 3.45-.96.183-1.06-2.245.714.592-2.143z"/><path fill="#27d045" d="M5 15.408c0-.02.715-2.387.715-2.387l1.714 1.612z"/><path fill="#fff" d="M7.443 7.068a1.92 1.92 0 0 0-.796 1.245c-.102.796.388 1.612.388 1.612.496.74 1.086 1.411 1.755 2a6.2 6.2 0 0 0 1.959 1.04c.414.167.868.209 1.306.123a1.87 1.87 0 0 0 .98-.653q.087-.217.122-.449a1.2 1.2 0 0 0 0-.408c-.02-.143-1.49-.816-1.633-.775-.142.04-.265.306-.428.53-.164.225-.225.327-.388.327s-.878-.286-1.551-.898a3.24 3.24 0 0 1-.878-1.225s.123-.142.286-.367c.127-.14.218-.307.265-.49 0-.102-.571-1.55-.714-1.612a2.4 2.4 0 0 0-.673 0"/></g><defs><clipPath id="a"><path fill="#fff" d="M0 0h20v20H0z"/></clipPath></defs></svg>
