<svg xmlns="http://www.w3.org/2000/svg" width="18" height="18" fill="none"><g clip-path="url(#a)"><path fill="#000" d="M9 18A9 9 0 1 0 9 0a9 9 0 0 0 0 18"/><path fill="#2DCCD3" d="M8.119 7.69v-.349a3 3 0 0 0-.457-.035c-1.822 0-3.348 1.462-3.348 3.275 0 1.19.58 2.208 1.46 2.81a3.39 3.39 0 0 1-.994-2.425c0-1.81 1.521-3.271 3.339-3.275m1.05-4.1v7.053c0 .924-.664 1.518-1.472 1.518a1.6 1.6 0 0 1-.743-.178c.28.358.723.565 1.21.565.807 0 1.47-.595 1.47-1.52V3.977h1.28a4 4 0 0 1-.085-.385zm2.942 2.081c.407.42.915.676 1.427.792v-.315a3 3 0 0 1-1.427-.477"/><path fill="#F1204A" d="M12.11 5.671c-.394-.405-.694-.963-.816-1.695h-.38c.217.792.664 1.344 1.196 1.695m1.427.792V7.8c-.74 0-1.439-.141-2.055-.557.718.718 1.588.942 2.521.942v-1.65a3 3 0 0 1-.466-.07m-6.584 5.52a1.5 1.5 0 0 1-.316-.955c0-1.067.835-1.631 1.947-1.514V7.727a3 3 0 0 0-.458-.036h-.008v1.437c-1.112-.116-1.947.447-1.947 1.515 0 .625.32 1.099.782 1.34m4.063-1.456c0 2.252-1.723 3.445-3.346 3.445a3.35 3.35 0 0 1-1.897-.581 3.34 3.34 0 0 0 2.362.967c1.624 0 3.347-1.194 3.347-3.446v-3.67a3 3 0 0 1-.466-.385z"/><path fill="#fff" d="M7.671 13.972c1.624 0 3.346-1.193 3.346-3.445v-3.67q.225.222.466.385c.617.416 1.317.557 2.056.557V6.463a2.87 2.87 0 0 1-1.427-.792c-.533-.351-.98-.903-1.197-1.695h-1.28v7.052c0 .925-.664 1.52-1.471 1.52-.486 0-.929-.207-1.21-.565-.462-.242-.781-.715-.781-1.34 0-1.068.834-1.631 1.947-1.515V7.691c-1.818.004-3.339 1.465-3.339 3.275 0 .964.38 1.816.994 2.425.54.369 1.193.581 1.896.581"/></g><defs><clipPath id="a"><path fill="#fff" d="M0 0h18v18H0z"/></clipPath></defs></svg>